<?xml version="1.0" encoding="UTF-8"?>
<svg version="1.1" xmlns="http://www.w3.org/2000/svg" width="256" height="256">
<path d="M0 0 C3.92411888 2.75616818 7.48466249 5.74297803 11 9 C11.76570312 9.68578125 12.53140625 10.3715625 13.3203125 11.078125 C23.75957201 20.89903116 31.38482264 33.38523994 38 46 C38.79954102 47.51049927 38.79954102 47.51049927 39.61523438 49.05151367 C43.85731984 57.26739452 47.24059948 65.50819413 50.125 74.3125 C50.33688965 74.95319427 50.5487793 75.59388855 50.76708984 76.2539978 C54.94886768 88.96971602 57.89246187 101.78241331 60 115 C60.12842285 115.75958008 60.2568457 116.51916016 60.38916016 117.30175781 C65.09494143 145.7733799 64.00917804 181.37008168 47 206 C44.17086214 209.51403157 41.14222712 212.76598961 38 216 C37.37351563 216.69996094 36.74703125 217.39992187 36.1015625 218.12109375 C21.48861861 233.93636847 -3.10782337 243.04527651 -24.31713867 244.17700195 C-47.30637793 244.56823519 -67.12412631 243.49563688 -88 233 C-89.03382812 232.51144531 -90.06765625 232.02289063 -91.1328125 231.51953125 C-110.50359677 221.47255114 -121.82949392 203.08895712 -128.40673828 182.92431641 C-138.98194001 148.62236576 -134.63817864 110.6353237 -124 77 C-123.73848145 76.1553418 -123.47696289 75.31068359 -123.20751953 74.44042969 C-113.59239356 43.78743165 -95.9324117 10.99375213 -66.88964844 -5.06152344 C-61.51679317 -7.72990272 -55.76888051 -9.4124948 -50 -11 C-49.00806641 -11.29970703 -49.00806641 -11.29970703 -47.99609375 -11.60546875 C-31.20180419 -14.92488802 -14.1704503 -8.66970091 0 0 Z " fill="#1B2431" transform="translate(164,12)"/>
<path d="M0 0 C3.92411888 2.75616818 7.48466249 5.74297803 11 9 C11.76570312 9.68578125 12.53140625 10.3715625 13.3203125 11.078125 C23.75957201 20.89903116 31.38482264 33.38523994 38 46 C38.79954102 47.51049927 38.79954102 47.51049927 39.61523438 49.05151367 C43.85731984 57.26739452 47.24059948 65.50819413 50.125 74.3125 C50.33688965 74.95319427 50.5487793 75.59388855 50.76708984 76.2539978 C54.94886768 88.96971602 57.89246187 101.78241331 60 115 C60.12842285 115.75958008 60.2568457 116.51916016 60.38916016 117.30175781 C65.09494143 145.7733799 64.00917804 181.37008168 47 206 C44.17086214 209.51403157 41.14222712 212.76598961 38 216 C37.37351563 216.69996094 36.74703125 217.39992187 36.1015625 218.12109375 C21.48861861 233.93636847 -3.10782337 243.04527651 -24.31713867 244.17700195 C-47.30637793 244.56823519 -67.12412631 243.49563688 -88 233 C-89.03382812 232.51144531 -90.06765625 232.02289063 -91.1328125 231.51953125 C-110.50359677 221.47255114 -121.82949392 203.08895712 -128.40673828 182.92431641 C-138.98194001 148.62236576 -134.63817864 110.6353237 -124 77 C-123.73848145 76.1553418 -123.47696289 75.31068359 -123.20751953 74.44042969 C-113.59239356 43.78743165 -95.9324117 10.99375213 -66.88964844 -5.06152344 C-61.51679317 -7.72990272 -55.76888051 -9.4124948 -50 -11 C-49.00806641 -11.29970703 -49.00806641 -11.29970703 -47.99609375 -11.60546875 C-31.20180419 -14.92488802 -14.1704503 -8.66970091 0 0 Z M-82.30566406 28.60302734 C-85.10801318 32.25108945 -87.59720681 36.08237846 -90 40 C-90.5561499 40.89428711 -90.5561499 40.89428711 -91.12353516 41.80664062 C-109.36161845 71.49112217 -117.30212558 105.93335323 -117.4375 140.5 C-117.44376404 141.24605499 -117.45002808 141.99210999 -117.45648193 142.76077271 C-117.58172329 166.30063132 -112.91430811 190.17134244 -96.21875 207.78515625 C-80.34825587 223.62770937 -59.39637906 230.14525203 -37.25 230.4375 C-22.65445393 230.35855944 -8.09177903 227.57472603 5 221 C5.92941406 220.55914062 6.85882813 220.11828125 7.81640625 219.6640625 C14.88762431 216.10386648 20.40560668 211.56642135 26 206 C26.7115625 205.32324219 27.423125 204.64648438 28.15625 203.94921875 C42.83161158 188.96341683 45.97630919 165.82643822 46.04345703 145.68603516 C45.32299378 101.15493007 32.10641479 53.44066471 0.69921875 20.59375 C-10.1817523 10.19360746 -23.21998717 3.15891084 -38.4375 2.5625 C-56.91895616 3.0874171 -71.10944885 14.85688877 -82.30566406 28.60302734 Z " fill="#010101" transform="translate(164,12)"/>
</svg>
